<svg width="64" height="64" viewBox="0 0 64 64" fill="none" xmlns="http://www.w3.org/2000/svg">
<rect x="2" y="2" width="60" height="60" rx="30" stroke="#D14632" stroke-width="4"/>
<path d="M34.3203 14.0909L33.9794 39.1818H30.0249L29.6839 14.0909H34.3203ZM32.0021 49.2727C31.1612 49.2727 30.4396 48.9716 29.8374 48.3693C29.2351 47.767 28.9339 47.0455 28.9339 46.2045C28.9339 45.3636 29.2351 44.642 29.8374 44.0398C30.4396 43.4375 31.1612 43.1364 32.0021 43.1364C32.843 43.1364 33.5646 43.4375 34.1669 44.0398C34.7692 44.642 35.0703 45.3636 35.0703 46.2045C35.0703 46.7614 34.9283 47.2727 34.6442 47.7386C34.3714 48.2045 34.0021 48.5795 33.5362 48.8636C33.0817 49.1364 32.5703 49.2727 32.0021 49.2727Z" fill="#D14632"/>
</svg>
