<svg width="16" height="16" viewBox="0 0 16 16" fill="none" xmlns="http://www.w3.org/2000/svg">
<path d="M3.33333 14.6667C2.96667 14.6667 2.65289 14.5363 2.392 14.2754C2.13111 14.0145 2.00044 13.7005 2 13.3334V4.00004C2 3.63338 2.13067 3.3196 2.392 3.05871C2.65333 2.79782 2.96711 2.66715 3.33333 2.66671H4V2.00004C4 1.81115 4.064 1.65293 4.192 1.52538C4.32 1.39782 4.47822 1.33382 4.66667 1.33338C4.85511 1.33293 5.01356 1.39693 5.142 1.52538C5.27044 1.65382 5.33422 1.81204 5.33333 2.00004V2.66671H10.6667V2.00004C10.6667 1.81115 10.7307 1.65293 10.8587 1.52538C10.9867 1.39782 11.1449 1.33382 11.3333 1.33338C11.5218 1.33293 11.6802 1.39693 11.8087 1.52538C11.9371 1.65382 12.0009 1.81204 12 2.00004V2.66671H12.6667C13.0333 2.66671 13.3473 2.79738 13.6087 3.05871C13.87 3.32004 14.0004 3.63382 14 4.00004V13.3334C14 13.7 13.8696 14.014 13.6087 14.2754C13.3478 14.5367 13.0338 14.6672 12.6667 14.6667H3.33333ZM3.33333 13.3334H12.6667V6.66671H3.33333V13.3334ZM3.33333 5.33338H12.6667V4.00004H3.33333V5.33338Z" fill="black"/>
</svg>
