<svg width="20" height="20" viewBox="0 0 20 20" fill="none" xmlns="http://www.w3.org/2000/svg">
<path d="M5.8335 17.5C5.37517 17.5 4.98267 17.3367 4.656 17.01C4.32933 16.6833 4.16628 16.2911 4.16683 15.8333V5C3.93072 5 3.73267 4.92 3.57267 4.76C3.41267 4.6 3.33294 4.40223 3.3335 4.16667C3.3335 3.93056 3.4135 3.7325 3.5735 3.5725C3.7335 3.4125 3.93128 3.33278 4.16683 3.33334H7.50017C7.50017 3.09723 7.58017 2.89917 7.74017 2.73917C7.90017 2.57917 8.09794 2.49945 8.3335 2.5H11.6668C11.9029 2.5 12.101 2.58 12.261 2.74C12.421 2.9 12.5007 3.09778 12.5002 3.33334H15.8335C16.0696 3.33334 16.2677 3.41334 16.4277 3.57334C16.5877 3.73334 16.6674 3.93111 16.6668 4.16667C16.6668 4.40278 16.5868 4.60084 16.4268 4.76084C16.2668 4.92084 16.0691 5.00056 15.8335 5V15.8333C15.8335 16.2917 15.6702 16.6842 15.3435 17.0108C15.0168 17.3375 14.6246 17.5006 14.1668 17.5H5.8335ZM14.1668 5H5.8335V15.8333H14.1668V5ZM7.50017 14.1667H9.16683V6.66667H7.50017V14.1667ZM10.8335 14.1667H12.5002V6.66667H10.8335V14.1667Z" fill="#FF4726"/>
</svg>
