<svg width="15" height="16" viewBox="0 0 15 16" fill="none" xmlns="http://www.w3.org/2000/svg">
<path d="M7.5 12.3885C7.34454 12.3885 7.1988 12.3636 7.06278 12.3139C6.92676 12.2641 6.80045 12.1786 6.68386 12.0573L1.32063 6.51729C1.10688 6.2965 1 6.01548 1 5.67425C1 5.33301 1.10688 5.052 1.32063 4.8312C1.53438 4.6104 1.80643 4.5 2.13677 4.5C2.46711 4.5 2.73916 4.6104 2.95291 4.8312L7.5 9.52818L12.0471 4.8312C12.2608 4.6104 12.5329 4.5 12.8632 4.5C13.1936 4.5 13.4656 4.6104 13.6794 4.8312C13.8931 5.052 14 5.33301 14 5.67425C14 6.01548 13.8931 6.2965 13.6794 6.51729L8.31614 12.0573C8.19955 12.1778 8.07324 12.2633 7.93722 12.3139C7.8012 12.3644 7.65546 12.3893 7.5 12.3885Z" fill="white"/>
</svg>
