<svg width="32" height="32" viewBox="0 0 32 32" fill="none" xmlns="http://www.w3.org/2000/svg">
<path d="M15.8286 27.6571C22.3614 27.6571 27.6571 22.3614 27.6571 15.8286C27.6571 9.29584 22.3614 4 15.8286 4C9.29584 4 4 9.29584 4 15.8286C4 22.3614 9.29584 27.6571 15.8286 27.6571Z" stroke="white" stroke-width="2" stroke-linecap="round" stroke-linejoin="round"/>
<path d="M11.8857 21.0858H15.8286H17.1429C18.0191 21.0858 19.7715 20.5601 19.7715 18.4572C19.7715 16.3544 18.0191 15.8287 17.1429 15.8287H14.5143C13.6381 15.8287 11.8857 15.303 11.8857 13.2001C11.8857 11.0972 13.6381 10.5715 14.5143 10.5715H15.8286H19.7715" stroke="white" stroke-width="2" stroke-linecap="round" stroke-linejoin="round"/>
<path d="M15.8281 21.0857V23.7143" stroke="white" stroke-width="2" stroke-linecap="round" stroke-linejoin="round"/>
<path d="M15.8281 10.5714V7.94287" stroke="white" stroke-width="2" stroke-linecap="round" stroke-linejoin="round"/>
</svg>
