<svg width="32" height="32" viewBox="0 0 32 32" fill="none" xmlns="http://www.w3.org/2000/svg">
<path d="M11.6621 23.4443V24.8332C11.6621 25.3804 11.7655 25.9223 11.9664 26.4278C12.1673 26.9332 12.4617 27.3925 12.8329 27.7795C13.2041 28.1664 13.6448 28.4734 14.1296 28.6827C14.6146 28.8921 15.1344 28.9999 15.6594 28.9999C16.1844 28.9999 16.7042 28.8921 17.1892 28.6827C17.674 28.4734 18.1147 28.1664 18.4859 27.7795C18.8571 27.3925 19.1516 26.9332 19.3524 26.4278C19.5533 25.9223 19.6567 25.3804 19.6567 24.8332V23.4443" stroke="white" stroke-width="2" stroke-linecap="round" stroke-linejoin="round"/>
<path d="M26.3189 23.4444C26.3189 23.4444 23.654 16.5 23.654 12.3333C23.654 7.79445 20.0138 4 15.6594 4C11.3051 4 7.66486 7.79445 7.66486 12.3333C7.66486 17.8889 5 23.4444 5 23.4444H26.3189Z" stroke="white" stroke-width="2" stroke-linecap="round" stroke-linejoin="round"/>
</svg>
