<svg width="32" height="32" viewBox="0 0 32 32" fill="none" xmlns="http://www.w3.org/2000/svg">
<path d="M15.8286 4C9.29584 4 4 9.29584 4 15.8286C4 22.3614 9.29584 27.6571 15.8286 27.6571C22.3614 27.6571 27.6571 22.3614 27.6571 15.8286C27.6571 9.29584 22.3614 4 15.8286 4Z" stroke="white" stroke-width="2"/>
<path d="M15.8286 15.8286C18.0062 15.8286 19.7715 14.0634 19.7715 11.8857C19.7715 9.70815 18.0062 7.94287 15.8286 7.94287C13.651 7.94287 11.8857 9.70815 11.8857 11.8857C11.8857 14.0634 13.651 15.8286 15.8286 15.8286Z" stroke="white" stroke-width="2"/>
<path d="M7.94238 24.6452C7.94238 22.5165 9.48236 19.7715 11.8852 19.7715H19.771C22.1739 19.7715 23.7138 22.5165 23.7138 24.6452" stroke="white" stroke-width="2"/>
</svg>
