<svg width="32" height="32" viewBox="0 0 32 32" fill="none" xmlns="http://www.w3.org/2000/svg">
<path d="M15.5 28C22.4036 28 28 22.4036 28 15.5C28 8.59644 22.4036 3 15.5 3C8.59644 3 3 8.59644 3 15.5C3 22.4036 8.59644 28 15.5 28Z" stroke="#1D3548" stroke-width="2.5" stroke-linecap="round" stroke-linejoin="round"/>
<path d="M11.3335 21.0554H15.5002H16.8891C17.815 21.0554 19.6668 20.4999 19.6668 18.2777C19.6668 16.0554 17.815 15.4999 16.8891 15.4999H14.1113C13.1853 15.4999 11.3335 14.9443 11.3335 12.7221C11.3335 10.4999 13.1853 9.94434 14.1113 9.94434H15.5002H19.6668" stroke="#1D3548" stroke-width="2.5" stroke-linecap="round" stroke-linejoin="round"/>
<path d="M15.5 21.0557V23.8334" stroke="#1D3548" stroke-width="2.5" stroke-linecap="round" stroke-linejoin="round"/>
<path d="M15.5 9.94453V7.16675" stroke="#1D3548" stroke-width="2.5" stroke-linecap="round" stroke-linejoin="round"/>
</svg>
