<svg width="32" height="32" viewBox="0 0 32 32" fill="none" xmlns="http://www.w3.org/2000/svg">
<path d="M10.6667 22.6667C11.0444 22.6667 11.3613 22.5387 11.6173 22.2827C11.8733 22.0267 12.0009 21.7102 12 21.3333C11.9991 20.9564 11.8711 20.64 11.616 20.384C11.3609 20.128 11.0444 20 10.6667 20C10.2889 20 9.97244 20.128 9.71733 20.384C9.46222 20.64 9.33422 20.9564 9.33333 21.3333C9.33244 21.7102 9.46044 22.0271 9.71733 22.284C9.97422 22.5409 10.2907 22.6684 10.6667 22.6667ZM10.6667 17.3333C11.0444 17.3333 11.3613 17.2053 11.6173 16.9493C11.8733 16.6933 12.0009 16.3769 12 16C11.9991 15.6231 11.8711 15.3067 11.616 15.0507C11.3609 14.7947 11.0444 14.6667 10.6667 14.6667C10.2889 14.6667 9.97244 14.7947 9.71733 15.0507C9.46222 15.3067 9.33422 15.6231 9.33333 16C9.33244 16.3769 9.46044 16.6938 9.71733 16.9507C9.97422 17.2076 10.2907 17.3351 10.6667 17.3333ZM10.6667 12C11.0444 12 11.3613 11.872 11.6173 11.616C11.8733 11.36 12.0009 11.0436 12 10.6667C11.9991 10.2898 11.8711 9.97333 11.616 9.71733C11.3609 9.46133 11.0444 9.33333 10.6667 9.33333C10.2889 9.33333 9.97244 9.46133 9.71733 9.71733C9.46222 9.97333 9.33422 10.2898 9.33333 10.6667C9.33244 11.0436 9.46044 11.3604 9.71733 11.6173C9.97422 11.8742 10.2907 12.0018 10.6667 12ZM16 22.6667H21.3333C21.7111 22.6667 22.028 22.5387 22.284 22.2827C22.54 22.0267 22.6676 21.7102 22.6667 21.3333C22.6658 20.9564 22.5378 20.64 22.2827 20.384C22.0276 20.128 21.7111 20 21.3333 20H16C15.6222 20 15.3058 20.128 15.0507 20.384C14.7956 20.64 14.6676 20.9564 14.6667 21.3333C14.6658 21.7102 14.7938 22.0271 15.0507 22.284C15.3076 22.5409 15.624 22.6684 16 22.6667ZM16 17.3333H21.3333C21.7111 17.3333 22.028 17.2053 22.284 16.9493C22.54 16.6933 22.6676 16.3769 22.6667 16C22.6658 15.6231 22.5378 15.3067 22.2827 15.0507C22.0276 14.7947 21.7111 14.6667 21.3333 14.6667H16C15.6222 14.6667 15.3058 14.7947 15.0507 15.0507C14.7956 15.3067 14.6676 15.6231 14.6667 16C14.6658 16.3769 14.7938 16.6938 15.0507 16.9507C15.3076 17.2076 15.624 17.3351 16 17.3333ZM16 12H21.3333C21.7111 12 22.028 11.872 22.284 11.616C22.54 11.36 22.6676 11.0436 22.6667 10.6667C22.6658 10.2898 22.5378 9.97333 22.2827 9.71733C22.0276 9.46133 21.7111 9.33333 21.3333 9.33333H16C15.6222 9.33333 15.3058 9.46133 15.0507 9.71733C14.7956 9.97333 14.6676 10.2898 14.6667 10.6667C14.6658 11.0436 14.7938 11.3604 15.0507 11.6173C15.3076 11.8742 15.624 12.0018 16 12ZM6.66667 28C5.93333 28 5.30578 27.7391 4.784 27.2173C4.26222 26.6956 4.00089 26.0676 4 25.3333V6.66667C4 5.93333 4.26133 5.30578 4.784 4.784C5.30667 4.26222 5.93422 4.00089 6.66667 4H25.3333C26.0667 4 26.6947 4.26133 27.2173 4.784C27.74 5.30667 28.0009 5.93422 28 6.66667V25.3333C28 26.0667 27.7391 26.6947 27.2173 27.2173C26.6956 27.74 26.0676 28.0009 25.3333 28H6.66667ZM6.66667 25.3333H25.3333V6.66667H6.66667V25.3333Z" fill="#1D3548"/>
</svg>
