<svg width="32" height="32" viewBox="0 0 32 32" fill="none" xmlns="http://www.w3.org/2000/svg">
<path d="M15.5 28C12.5833 28 10.0023 27.1148 7.75694 25.3444C5.51157 23.5741 4.05324 21.3111 3.38194 18.5556C3.28935 18.2083 3.3588 17.8903 3.59028 17.6014C3.82176 17.3125 4.13426 17.1444 4.52778 17.0972C4.89815 17.0509 5.2338 17.1204 5.53472 17.3056C5.83565 17.4907 6.04398 17.7685 6.15972 18.1389C6.71528 20.2222 7.86111 21.9236 9.59722 23.2431C11.3333 24.5625 13.3009 25.2222 15.5 25.2222C18.2083 25.2222 20.506 24.2792 22.3931 22.393C24.2801 20.5069 25.2231 18.2093 25.2222 15.5C25.2213 12.7907 24.2782 10.4935 22.3931 8.60833C20.5079 6.72315 18.2102 5.77963 15.5 5.77778C13.9028 5.77778 12.4097 6.14815 11.0208 6.88889C9.63194 7.62963 8.46296 8.64815 7.51389 9.94444H9.94444C10.338 9.94444 10.6681 10.0778 10.9347 10.3444C11.2014 10.6111 11.3343 10.9407 11.3333 11.3333C11.3324 11.7259 11.1991 12.056 10.9333 12.3236C10.6676 12.5912 10.338 12.7241 9.94444 12.7222H4.38889C3.99537 12.7222 3.66574 12.5889 3.4 12.3222C3.13426 12.0556 3.00093 11.7259 3 11.3333V5.77778C3 5.38426 3.13333 5.05463 3.4 4.78889C3.66667 4.52315 3.9963 4.38981 4.38889 4.38889C4.78148 4.38796 5.11157 4.5213 5.37917 4.78889C5.64676 5.05648 5.77963 5.38611 5.77778 5.77778V7.65278C6.95833 6.1713 8.39954 5.02546 10.1014 4.21528C11.8032 3.40509 13.6028 3 15.5 3C17.2361 3 18.8625 3.33009 20.3792 3.99028C21.8958 4.65046 23.2153 5.5412 24.3375 6.6625C25.4597 7.78379 26.3509 9.10324 27.0111 10.6208C27.6713 12.1384 28.0009 13.7648 28 15.5C27.9991 17.2352 27.6694 18.8616 27.0111 20.3792C26.3528 21.8968 25.4616 23.2162 24.3375 24.3375C23.2134 25.4588 21.894 26.35 20.3792 27.0111C18.8643 27.6722 17.238 28.0018 15.5 28ZM16.8889 14.9444L20.3611 18.4167C20.6157 18.6713 20.7431 18.9954 20.7431 19.3889C20.7431 19.7824 20.6157 20.1065 20.3611 20.3611C20.1065 20.6157 19.7824 20.743 19.3889 20.743C18.9954 20.743 18.6713 20.6157 18.4167 20.3611L14.5278 16.4722C14.3889 16.3333 14.2847 16.1773 14.2153 16.0042C14.1458 15.831 14.1111 15.6514 14.1111 15.4653V9.94444C14.1111 9.55092 14.2444 9.22129 14.5111 8.95555C14.7778 8.68981 15.1074 8.55648 15.5 8.55555C15.8926 8.55463 16.2227 8.68796 16.4903 8.95555C16.7579 9.22315 16.8907 9.55278 16.8889 9.94444V14.9444Z" fill="#1D3548"/>
<path fill-rule="evenodd" clip-rule="evenodd" d="M25.1592 16.6886C25.0591 17.6079 24.8398 18.4751 24.5011 19.2903C24.4874 19.3233 24.4736 19.3561 24.4595 19.3889C23.9891 20.4843 23.3011 21.4849 22.3955 22.3906C22.3947 22.3914 22.3939 22.3922 22.3931 22.393C21.4865 23.2992 20.4851 23.9877 19.3889 24.4585C19.3541 24.4734 19.3193 24.4881 19.2844 24.5026C18.4706 24.84 17.6051 25.0588 16.688 25.1589C16.3021 25.201 15.9071 25.2221 15.503 25.2222C15.502 25.2222 15.501 25.2222 15.5 25.2222C13.3009 25.2222 11.3333 24.5625 9.59722 23.2431C9.5589 23.2139 9.52087 23.1846 9.48312 23.1551C8.63163 22.4897 7.9265 21.7296 7.36771 20.8749C7.26471 20.7173 7.16668 20.5565 7.07363 20.3925C6.68003 19.6989 6.3754 18.9477 6.15972 18.1389C6.13351 18.055 6.10254 17.9759 6.06683 17.9015C6.05796 17.883 6.04879 17.8648 6.03933 17.8469C6.01645 17.8036 5.99186 17.7621 5.96555 17.7222C5.85321 17.5521 5.7096 17.4132 5.53472 17.3056C5.2684 17.1417 4.97489 17.0684 4.65418 17.0858C4.61251 17.0881 4.57037 17.0919 4.52778 17.0972C4.4803 17.1029 4.43401 17.1104 4.38889 17.1196C4.06004 17.1867 3.79383 17.3473 3.59028 17.6014C3.57273 17.6233 3.55611 17.6454 3.54042 17.6676C3.3492 17.9387 3.29637 18.2347 3.38194 18.5556C3.38982 18.5879 3.3978 18.6201 3.40589 18.6523C3.42328 18.7215 3.44117 18.7904 3.45956 18.8589C3.46979 18.897 3.48016 18.935 3.4907 18.973C3.59341 19.3427 3.71083 19.7033 3.84296 20.0547C4.11138 20.7685 4.4405 21.4444 4.8303 22.0822C5.58085 23.3105 6.5564 24.3979 7.75694 25.3444C7.80775 25.3845 7.85873 25.4241 7.90987 25.4632C10.1193 27.1544 12.6493 28 15.5 28C17.238 28.0018 18.8644 27.6722 20.3792 27.0111C21.8938 26.3501 23.2131 25.459 24.337 24.338C24.3372 24.3378 24.3369 24.3381 24.337 24.338C25.4611 23.2167 26.3528 21.8968 27.0111 20.3792C27.6694 18.8616 27.9991 17.2352 28 15.5C28 15.4997 28 15.5003 28 15.5C28.0008 13.7652 27.6712 12.1381 27.0111 10.6208C26.3511 9.10355 25.4601 7.78434 24.3382 6.66319C24.338 6.66296 24.3384 6.66342 24.3382 6.66319C23.216 5.5419 21.8958 4.65046 20.3792 3.99028C18.8631 3.33033 17.2373 3.00024 15.5019 3C15.5013 3 15.5006 3 15.5 3C13.7643 3 12.1104 3.33905 10.5382 4.01715C10.3919 4.08026 10.2463 4.1463 10.1014 4.21528C9.96634 4.27957 9.83293 4.34598 9.70116 4.4145C9.38487 4.57897 9.07804 4.75562 8.78067 4.94444C8.37832 5.19993 7.99328 5.47771 7.62555 5.77778C7.62201 5.78067 7.61846 5.78357 7.61492 5.78646C7.5811 5.81413 7.54742 5.84198 7.51389 5.87003C6.96785 6.32672 6.46072 6.83352 5.99251 7.39043C5.92 7.47668 5.84842 7.56413 5.77778 7.65278V5.77778C5.77957 5.39801 5.65471 5.07657 5.40318 4.81345C5.3953 4.8052 5.3873 4.79702 5.37917 4.78889C5.11157 4.5213 4.78148 4.38796 4.38889 4.38889C3.9963 4.38981 3.66667 4.52315 3.4 4.78889C3.20758 4.98064 3.08458 5.20566 3.03101 5.46394C3.01116 5.55961 3.00084 5.65985 3.00005 5.76464C3.00002 5.76901 3 5.77339 3 5.77778V11.3333C3.00083 11.6843 3.10748 11.985 3.31996 12.2353C3.34515 12.265 3.37183 12.294 3.4 12.3222C3.56628 12.4891 3.75758 12.6037 3.9739 12.6662C3.98151 12.6684 3.98915 12.6705 3.99682 12.6726C4.11958 12.7057 4.25027 12.7222 4.38889 12.7222H9.94444C10.302 12.7239 10.6069 12.6143 10.859 12.3935C10.8843 12.3713 10.9091 12.348 10.9333 12.3236C11.1991 12.056 11.3324 11.7259 11.3333 11.3333C11.3343 10.9407 11.2014 10.6111 10.9347 10.3444C10.774 10.1837 10.5901 10.0714 10.3832 10.0075C10.2508 9.96664 10.1089 9.94563 9.95752 9.94449C9.95317 9.94446 9.94881 9.94444 9.94444 9.94444H7.51389C7.55475 9.88862 7.59603 9.83332 7.63771 9.77853C7.73987 9.64425 7.84447 9.51307 7.95153 9.38498C7.95496 9.38088 7.9584 9.37677 7.96183 9.37267C7.97452 9.35754 7.98724 9.34245 8 9.3274C8.43551 8.81364 8.91101 8.35038 9.42648 7.93762C9.51368 7.86779 9.60202 7.79941 9.69151 7.73248C9.69608 7.72906 9.70066 7.72564 9.70525 7.72222C9.73654 7.6989 9.76797 7.67575 9.79955 7.65278C9.84752 7.61787 9.89582 7.58337 9.94444 7.54927C10.2124 7.36136 10.4902 7.18581 10.7778 7.02263C10.858 6.97708 10.9391 6.9325 11.0208 6.88889C11.115 6.83865 11.2097 6.79011 11.3049 6.74328C11.5336 6.6307 11.7651 6.52797 11.9994 6.43509C12.4772 6.24565 12.9665 6.09716 13.4673 5.98962C14.123 5.84883 14.7983 5.77822 15.4934 5.77778C15.4956 5.77778 15.4978 5.77778 15.5 5.77778C16.7719 5.77865 17.953 5.98692 19.0432 6.40261C19.125 6.43377 19.2062 6.4661 19.2869 6.4996C20.0897 6.83277 20.842 7.28129 21.5438 7.84514C21.8356 8.0796 22.1187 8.33399 22.3931 8.60833C22.3931 8.60837 22.393 8.60829 22.3931 8.60833C23.3267 9.54205 24.0294 10.577 24.5009 11.7128C24.9811 12.8698 25.2216 14.1317 25.2222 15.4985C25.2222 15.499 25.2222 15.4995 25.2222 15.5C25.2224 15.9054 25.2014 16.3016 25.1592 16.6886ZM16.8889 10.9522V9.94444C16.8907 9.55278 16.7579 9.22315 16.4903 8.95555C16.2735 8.7388 16.0158 8.61014 15.717 8.56957C15.6469 8.56005 15.5746 8.55538 15.5 8.55555C15.4994 8.55556 15.4987 8.55556 15.4981 8.55556C15.1063 8.55691 14.7773 8.69024 14.5111 8.95555C14.2474 9.21833 14.1141 9.54358 14.1112 9.93131C14.1111 9.93568 14.1111 9.94006 14.1111 9.94444V15.4653C14.1111 15.47 14.1111 15.4747 14.1112 15.4795C14.1129 15.6605 14.1476 15.8354 14.2153 16.0042C14.2246 16.0274 14.2345 16.0503 14.2451 16.0729C14.3133 16.2189 14.4075 16.352 14.5278 16.4722L18.4167 20.3611C18.6713 20.6157 18.9954 20.743 19.3889 20.743C19.7824 20.743 20.1065 20.6157 20.3611 20.3611C20.3613 20.3609 20.3609 20.3613 20.3611 20.3611C20.6154 20.1066 20.7431 19.7821 20.7431 19.3889C20.7431 18.9954 20.6157 18.6713 20.3611 18.4167L16.8889 14.9444V13.2684C16.8705 13.2762 16.8519 13.2839 16.8332 13.2914C16.5246 13.4163 16.2265 13.4887 15.9537 13.5252C16.2054 12.8265 16.3316 12.0897 16.3333 11.3451C16.3337 11.174 16.3275 11.0032 16.3147 10.8332C16.3414 10.837 16.3679 10.841 16.3942 10.8452C16.5648 10.8725 16.7295 10.9081 16.8889 10.9522ZM4.38889 7.72222C4.39151 7.72222 4.39413 7.72222 4.39675 7.72223L4.38889 7.72222Z" fill="#1D3548"/>
</svg>
