<svg width="124" height="24" viewBox="0 0 124 24" fill="none" xmlns="http://www.w3.org/2000/svg">
<path d="M40.4366 19C40.29 19 40.17 18.9467 40.0766 18.84C39.9966 18.7333 39.97 18.6067 39.9966 18.46L42.7566 5.54C42.7833 5.39333 42.8566 5.26667 42.9766 5.16C43.11 5.05333 43.25 5 43.3966 5H47.3966C47.5433 5 47.6566 5.05333 47.7366 5.16C47.83 5.26667 47.8633 5.39333 47.8366 5.54L45.8366 14.9H51.3766C51.5233 14.9 51.6366 14.9533 51.7166 15.06C51.7966 15.1667 51.8233 15.2933 51.7966 15.44L51.1566 18.46C51.13 18.6067 51.05 18.7333 50.9166 18.84C50.7966 18.9467 50.6633 19 50.5166 19H40.4366ZM58.7823 19.2C57.4356 19.2 56.3089 19 55.4023 18.6C54.5089 18.2 53.8689 17.5933 53.4823 16.78C53.0956 15.9667 53.0089 14.94 53.2223 13.7C53.3156 13.1533 53.4289 12.56 53.5623 11.92C53.7089 11.28 53.8489 10.6733 53.9823 10.1C54.2756 8.91333 54.7889 7.93333 55.5223 7.16C56.2689 6.37333 57.1823 5.78667 58.2623 5.4C59.3423 5 60.5356 4.8 61.8423 4.8C62.8956 4.8 63.8156 4.92 64.6023 5.16C65.4023 5.38667 66.0556 5.70667 66.5623 6.12C67.0689 6.53333 67.4223 7.01333 67.6223 7.56C67.8356 8.09333 67.8889 8.66 67.7823 9.26C67.7556 9.38 67.6889 9.48667 67.5823 9.58C67.4756 9.66 67.3623 9.7 67.2423 9.7H62.8223C62.6756 9.7 62.5623 9.68 62.4823 9.64C62.4023 9.6 62.3356 9.54667 62.2823 9.48C62.2556 9.41333 62.2023 9.32 62.1223 9.2C62.0556 9.06667 61.9356 8.95333 61.7623 8.86C61.6023 8.75333 61.3556 8.7 61.0223 8.7C60.5289 8.7 60.1223 8.82667 59.8023 9.08C59.4956 9.32 59.2823 9.69333 59.1623 10.2C59.0289 10.7467 58.9023 11.3067 58.7823 11.88C58.6623 12.4533 58.5489 13.0267 58.4423 13.6C58.3356 14.2 58.3956 14.6333 58.6223 14.9C58.8489 15.1667 59.2089 15.3 59.7023 15.3C60.0356 15.3 60.3356 15.2533 60.6023 15.16C60.8823 15.0667 61.1156 14.9133 61.3023 14.7C61.5023 14.4867 61.6356 14.2133 61.7023 13.88V13.86H60.7623C60.6156 13.86 60.5023 13.8067 60.4223 13.7C60.3423 13.5933 60.3156 13.4667 60.3423 13.32L60.8023 11.1C60.8289 10.9533 60.9089 10.8267 61.0423 10.72C61.1756 10.6133 61.3156 10.56 61.4623 10.56H66.9623C67.1089 10.56 67.2223 10.6133 67.3023 10.72C67.3823 10.8267 67.4089 10.9533 67.3823 11.1L66.8423 13.7C66.6023 14.9 66.0956 15.9067 65.3223 16.72C64.5623 17.5333 63.6156 18.1533 62.4823 18.58C61.3623 18.9933 60.1289 19.2 58.7823 19.2ZM73.4009 19.2C71.9342 19.2 70.7275 19 69.7809 18.6C68.8342 18.2 68.1542 17.6733 67.7409 17.02C67.3409 16.3667 67.2075 15.6733 67.3409 14.94C67.3675 14.82 67.4275 14.72 67.5209 14.64C67.6275 14.5467 67.7409 14.5 67.8609 14.5H71.6609C71.8742 14.5 72.0275 14.5333 72.1209 14.6C72.2275 14.6533 72.3409 14.7333 72.4609 14.84C72.5675 14.9333 72.6809 15.02 72.8009 15.1C72.9342 15.1667 73.0875 15.22 73.2609 15.26C73.4342 15.2867 73.6275 15.3 73.8409 15.3C74.2942 15.3 74.6675 15.2533 74.9609 15.16C75.2542 15.0533 75.4209 14.9133 75.4609 14.74C75.5009 14.58 75.4542 14.4467 75.3209 14.34C75.1875 14.2333 74.9409 14.14 74.5809 14.06C74.2209 13.9667 73.7209 13.88 73.0809 13.8C72.0542 13.6533 71.1942 13.3867 70.5009 13C69.8075 12.6 69.3142 12.0733 69.0209 11.42C68.7409 10.7667 68.7009 10 68.9009 9.12C69.1809 7.76 69.9009 6.7 71.0609 5.94C72.2209 5.18 73.7075 4.8 75.5209 4.8C76.4275 4.8 77.2475 4.93333 77.9809 5.2C78.7275 5.45333 79.3609 5.79333 79.8809 6.22C80.4142 6.63333 80.8075 7.08 81.0609 7.56C81.3142 8.04 81.4009 8.5 81.3209 8.94C81.3075 9.06 81.2475 9.16667 81.1409 9.26C81.0342 9.34 80.9275 9.38 80.8209 9.38H76.8209C76.6342 9.38 76.4875 9.35333 76.3809 9.3C76.2875 9.24667 76.1875 9.16667 76.0809 9.06C76.0275 8.99333 75.9209 8.92 75.7609 8.84C75.6009 8.74667 75.3809 8.7 75.1009 8.7C74.7675 8.7 74.5142 8.75333 74.3409 8.86C74.1675 8.95333 74.0609 9.08667 74.0209 9.26C73.9942 9.38 74.0275 9.49333 74.1209 9.6C74.2275 9.70667 74.4275 9.8 74.7209 9.88C75.0275 9.96 75.4742 10.04 76.0609 10.12C77.3675 10.28 78.3809 10.56 79.1009 10.96C79.8342 11.36 80.3209 11.88 80.5609 12.52C80.8009 13.1467 80.8275 13.8933 80.6409 14.76C80.3342 16.2133 79.5742 17.32 78.3609 18.08C77.1475 18.8267 75.4942 19.2 73.4009 19.2ZM87.5257 19.2C86.099 19.2 84.9257 18.9667 84.0057 18.5C83.099 18.0333 82.4524 17.4467 82.0657 16.74C81.6924 16.02 81.5857 15.28 81.7457 14.52C81.8924 13.8533 82.1857 13.2733 82.6257 12.78C83.079 12.2733 83.5724 11.88 84.1057 11.6C83.8257 11.28 83.6124 10.8867 83.4657 10.42C83.3324 9.94 83.3257 9.42667 83.4457 8.88C83.5924 8.17333 83.9124 7.51333 84.4057 6.9C84.899 6.27333 85.5857 5.76667 86.4657 5.38C87.359 4.99333 88.4657 4.8 89.7857 4.8C91.1057 4.8 92.179 5.01333 93.0057 5.44C93.8457 5.86667 94.439 6.41333 94.7857 7.08C95.1457 7.74667 95.2457 8.43333 95.0857 9.14C94.979 9.68667 94.7857 10.16 94.5057 10.56C94.239 10.9467 93.8657 11.2933 93.3857 11.6C93.8657 11.9733 94.199 12.4467 94.3857 13.02C94.5857 13.58 94.6124 14.1933 94.4657 14.86C94.3057 15.6067 93.959 16.3133 93.4257 16.98C92.9057 17.6467 92.1657 18.1867 91.2057 18.6C90.2457 19 89.019 19.2 87.5257 19.2ZM87.8457 15.84C88.1124 15.84 88.359 15.7933 88.5857 15.7C88.8257 15.6067 89.0257 15.4733 89.1857 15.3C89.3457 15.1133 89.4524 14.9 89.5057 14.66C89.5724 14.2867 89.4924 14 89.2657 13.8C89.0524 13.5867 88.7457 13.48 88.3457 13.48C88.079 13.48 87.8257 13.5267 87.5857 13.62C87.359 13.7133 87.1657 13.8467 87.0057 14.02C86.859 14.1933 86.759 14.4067 86.7057 14.66C86.6257 15.0333 86.6924 15.3267 86.9057 15.54C87.1324 15.74 87.4457 15.84 87.8457 15.84ZM89.0257 10.34C89.2924 10.34 89.5324 10.2933 89.7457 10.2C89.959 10.0933 90.1324 9.96 90.2657 9.8C90.399 9.64 90.4857 9.46 90.5257 9.26C90.5924 8.95333 90.5324 8.7 90.3457 8.5C90.159 8.28667 89.8657 8.18 89.4657 8.18C89.199 8.18 88.959 8.22667 88.7457 8.32C88.5457 8.41333 88.379 8.54667 88.2457 8.72C88.1124 8.88 88.0257 9.06 87.9857 9.26C87.9324 9.55333 87.9924 9.80667 88.1657 10.02C88.339 10.2333 88.6257 10.34 89.0257 10.34ZM101.725 19.2C100.298 19.2 99.1249 18.9667 98.2049 18.5C97.2983 18.0333 96.6516 17.4467 96.2649 16.74C95.8916 16.02 95.7849 15.28 95.9449 14.52C96.0916 13.8533 96.3849 13.2733 96.8249 12.78C97.2783 12.2733 97.7716 11.88 98.3049 11.6C98.0249 11.28 97.8116 10.8867 97.6649 10.42C97.5316 9.94 97.5249 9.42667 97.6449 8.88C97.7916 8.17333 98.1116 7.51333 98.6049 6.9C99.0983 6.27333 99.7849 5.76667 100.665 5.38C101.558 4.99333 102.665 4.8 103.985 4.8C105.305 4.8 106.378 5.01333 107.205 5.44C108.045 5.86667 108.638 6.41333 108.985 7.08C109.345 7.74667 109.445 8.43333 109.285 9.14C109.178 9.68667 108.985 10.16 108.705 10.56C108.438 10.9467 108.065 11.2933 107.585 11.6C108.065 11.9733 108.398 12.4467 108.585 13.02C108.785 13.58 108.812 14.1933 108.665 14.86C108.505 15.6067 108.158 16.3133 107.625 16.98C107.105 17.6467 106.365 18.1867 105.405 18.6C104.445 19 103.218 19.2 101.725 19.2ZM102.045 15.84C102.312 15.84 102.558 15.7933 102.785 15.7C103.025 15.6067 103.225 15.4733 103.385 15.3C103.545 15.1133 103.652 14.9 103.705 14.66C103.772 14.2867 103.692 14 103.465 13.8C103.252 13.5867 102.945 13.48 102.545 13.48C102.278 13.48 102.025 13.5267 101.785 13.62C101.558 13.7133 101.365 13.8467 101.205 14.02C101.058 14.1933 100.958 14.4067 100.905 14.66C100.825 15.0333 100.892 15.3267 101.105 15.54C101.332 15.74 101.645 15.84 102.045 15.84ZM103.225 10.34C103.492 10.34 103.732 10.2933 103.945 10.2C104.158 10.0933 104.332 9.96 104.465 9.8C104.598 9.64 104.685 9.46 104.725 9.26C104.792 8.95333 104.732 8.7 104.545 8.5C104.358 8.28667 104.065 8.18 103.665 8.18C103.398 8.18 103.158 8.22667 102.945 8.32C102.745 8.41333 102.578 8.54667 102.445 8.72C102.312 8.88 102.225 9.06 102.185 9.26C102.132 9.55333 102.192 9.80667 102.365 10.02C102.538 10.2333 102.825 10.34 103.225 10.34ZM115.924 19.2C114.497 19.2 113.324 18.9667 112.404 18.5C111.497 18.0333 110.851 17.4467 110.464 16.74C110.091 16.02 109.984 15.28 110.144 14.52C110.291 13.8533 110.584 13.2733 111.024 12.78C111.477 12.2733 111.971 11.88 112.504 11.6C112.224 11.28 112.011 10.8867 111.864 10.42C111.731 9.94 111.724 9.42667 111.844 8.88C111.991 8.17333 112.311 7.51333 112.804 6.9C113.297 6.27333 113.984 5.76667 114.864 5.38C115.757 4.99333 116.864 4.8 118.184 4.8C119.504 4.8 120.577 5.01333 121.404 5.44C122.244 5.86667 122.837 6.41333 123.184 7.08C123.544 7.74667 123.644 8.43333 123.484 9.14C123.377 9.68667 123.184 10.16 122.904 10.56C122.637 10.9467 122.264 11.2933 121.784 11.6C122.264 11.9733 122.597 12.4467 122.784 13.02C122.984 13.58 123.011 14.1933 122.864 14.86C122.704 15.6067 122.357 16.3133 121.824 16.98C121.304 17.6467 120.564 18.1867 119.604 18.6C118.644 19 117.417 19.2 115.924 19.2ZM116.244 15.84C116.511 15.84 116.757 15.7933 116.984 15.7C117.224 15.6067 117.424 15.4733 117.584 15.3C117.744 15.1133 117.851 14.9 117.904 14.66C117.971 14.2867 117.891 14 117.664 13.8C117.451 13.5867 117.144 13.48 116.744 13.48C116.477 13.48 116.224 13.5267 115.984 13.62C115.757 13.7133 115.564 13.8467 115.404 14.02C115.257 14.1933 115.157 14.4067 115.104 14.66C115.024 15.0333 115.091 15.3267 115.304 15.54C115.531 15.74 115.844 15.84 116.244 15.84ZM117.424 10.34C117.691 10.34 117.931 10.2933 118.144 10.2C118.357 10.0933 118.531 9.96 118.664 9.8C118.797 9.64 118.884 9.46 118.924 9.26C118.991 8.95333 118.931 8.7 118.744 8.5C118.557 8.28667 118.264 8.18 117.864 8.18C117.597 8.18 117.357 8.22667 117.144 8.32C116.944 8.41333 116.777 8.54667 116.644 8.72C116.511 8.88 116.424 9.06 116.384 9.26C116.331 9.55333 116.391 9.80667 116.564 10.02C116.737 10.2333 117.024 10.34 117.424 10.34Z" fill="black"/>
<circle cx="8" cy="12" r="8" fill="#FDC612"/>
<circle cx="16" cy="12" r="8" fill="#00B333"/>
<circle cx="24" cy="12" r="8" fill="#FF4726"/>
</svg>
