<svg width="150" height="30" viewBox="0 0 150 30" fill="none" xmlns="http://www.w3.org/2000/svg">
<path d="M0 0H6.65625V26.6562H10C10.9271 26.6562 11.7135 26.3281 12.3594 25.6719C13.0156 25.0156 13.3438 24.2396 13.3438 23.3438V0H20V26.6562H23.3438C24.25 26.6562 25.026 26.3281 25.6719 25.6719C26.3281 25.0156 26.6562 24.2396 26.6562 23.3438V0H33.3438V18.6094C33.3438 21.7135 32.224 24.3906 29.9844 26.6406C27.7552 28.8802 25.0781 30 21.9531 30H13.3438V28.9375C12.0625 29.6458 10.4844 30 8.60938 30H0V0Z" fill="#FF0000"/>
<path d="M149.269 22H138.594V24.675C138.594 25.3916 138.852 26.0125 139.369 26.5375C139.894 27.0625 140.527 27.325 141.269 27.325H143.944C145.71 27.325 146.594 26.4416 146.594 24.675H149.269C148.852 28.225 147.077 30 143.944 30H138.594C137.135 30 135.881 29.4791 134.831 28.4375C133.789 27.3875 133.269 26.1333 133.269 24.675V16.675C133.269 15.2 133.794 13.9416 134.844 12.9C135.894 11.85 137.144 11.325 138.594 11.325H143.944C145.402 11.325 146.652 11.8541 147.694 12.9125C148.744 13.9625 149.269 15.2166 149.269 16.675V22ZM138.594 19.325H143.944V16.675C143.944 15.9416 143.677 15.3125 143.144 14.7875C142.619 14.2625 141.994 14 141.269 14C140.535 14 139.906 14.2625 139.381 14.7875C138.856 15.3125 138.594 15.9416 138.594 16.675V19.325Z" fill="black"/>
<path d="M127.956 30H122.631V27.325C122.423 29.1083 121.531 30 119.956 30H117.281C115.823 30 114.569 29.4792 113.519 28.4375C112.477 27.3875 111.956 26.1333 111.956 24.675V16.675C111.956 15.2 112.481 13.9417 113.531 12.9C114.581 11.85 115.831 11.325 117.281 11.325H122.631V6H127.956V30ZM122.631 14H119.956C119.223 14 118.594 14.2625 118.069 14.7875C117.544 15.3125 117.281 15.9417 117.281 16.675V24.675C117.281 25.3917 117.539 26.0125 118.056 26.5375C118.581 27.0625 119.214 27.325 119.956 27.325C120.698 27.325 121.327 27.0625 121.844 26.5375C122.369 26.0125 122.631 25.3917 122.631 24.675V14Z" fill="black"/>
<path d="M101.319 19.325V16.675C101.319 15.9416 101.052 15.3125 100.519 14.7875C99.9936 14.2625 99.3686 14 98.6436 14H95.9686C94.3936 14 93.5102 14.8916 93.3186 16.675H90.6436C91.0519 13.1083 92.8269 11.325 95.9686 11.325H101.319C102.777 11.325 104.027 11.8541 105.069 12.9125C106.119 13.9625 106.644 15.2166 106.644 16.675V30H101.319V27.325C101.11 29.1083 100.219 30 98.6436 30H95.9686C94.5102 30 93.2561 29.4791 92.2061 28.4375C91.1644 27.3875 90.6436 26.1333 90.6436 24.675V24.65C90.6436 23.1916 91.1686 21.9416 92.2186 20.9C93.2686 19.85 94.5186 19.325 95.9686 19.325H101.319ZM101.319 22H98.6436C97.9102 22 97.2811 22.2625 96.7561 22.7875C96.2311 23.3041 95.9686 23.925 95.9686 24.65V24.675C95.9686 25.3916 96.2269 26.0125 96.7436 26.5375C97.2686 27.0625 97.9019 27.325 98.6436 27.325C99.3852 27.325 100.014 27.0625 100.531 26.5375C101.056 26.0125 101.319 25.3916 101.319 24.675V22Z" fill="black"/>
<path d="M79.9686 30H74.6436V11.325H79.9686V16.675C80.1769 14.8916 80.7269 13.5541 81.6186 12.6625C82.5102 11.7708 83.7436 11.325 85.3186 11.325H87.9686V16.675H82.6436C81.9102 16.675 81.2811 16.9375 80.7561 17.4625C80.2311 17.9791 79.9686 18.6 79.9686 19.325V30Z" fill="black"/>
<path d="M61.2938 30V8.675H55.9688V6H71.9688V8.675H66.6437V30H61.2938Z" fill="black"/>
<path d="M42.6561 11.325H48.0061C49.4644 11.325 50.7144 11.8541 51.7561 12.9125C52.8061 13.9625 53.3311 15.2166 53.3311 16.675V24.675C53.3311 26.1166 52.8061 27.3666 51.7561 28.425C50.7144 29.475 49.4644 30 48.0061 30H42.6561C41.1977 30 39.9436 29.4791 38.8936 28.4375C37.8519 27.3875 37.3311 26.1333 37.3311 24.675V16.675C37.3311 15.2 37.8561 13.9416 38.9061 12.9C39.9561 11.85 41.2061 11.325 42.6561 11.325ZM42.6561 16.675V24.675C42.6561 25.3916 42.9144 26.0125 43.4311 26.5375C43.9561 27.0625 44.5894 27.325 45.3311 27.325C46.0727 27.325 46.7019 27.0625 47.2186 26.5375C47.7436 26.0125 48.0061 25.3916 48.0061 24.675V16.675C48.0061 15.9416 47.7394 15.3125 47.2061 14.7875C46.6811 14.2625 46.0561 14 45.3311 14C44.5977 14 43.9686 14.2625 43.4436 14.7875C42.9186 15.3125 42.6561 15.9416 42.6561 16.675Z" fill="black"/>
</svg>
